<svg width="30" height="26" viewBox="0 0 30 26" fill="none" xmlns="http://www.w3.org/2000/svg">
<path d="M27.7828 0.474609H1.88582C1.41753 0.474609 0.968414 0.660638 0.63728 0.991772C0.306146 1.32291 0.120117 1.77202 0.120117 2.24031V23.4288C0.120117 23.8971 0.306146 24.3462 0.63728 24.6773C0.968414 25.0084 1.41753 25.1945 1.88582 25.1945H27.7828C28.2511 25.1945 28.7002 25.0084 29.0314 24.6773C29.3625 24.3462 29.5485 23.8971 29.5485 23.4288V2.24031C29.5485 1.77202 29.3625 1.32291 29.0314 0.991772C28.7002 0.660638 28.2511 0.474609 27.7828 0.474609ZM1.88582 1.65175H27.7828C27.9389 1.65175 28.0886 1.71376 28.199 1.82413C28.3094 1.93451 28.3714 2.08422 28.3714 2.24031V18.7791L23.5319 13.9396C23.3678 13.775 23.1729 13.6444 22.9583 13.5552C22.7437 13.4661 22.5136 13.4202 22.2812 13.4202C22.0488 13.4202 21.8187 13.4661 21.6041 13.5552C21.3894 13.6444 21.1945 13.775 21.0305 13.9396L17.6712 17.2988L10.782 10.4082C10.618 10.2436 10.4231 10.1129 10.2084 10.0238C9.99382 9.93471 9.76371 9.88884 9.53132 9.88884C9.29893 9.88884 9.06882 9.93471 8.8542 10.0238C8.63958 10.1129 8.44465 10.2436 8.28061 10.4082L1.29725 17.3959V2.24031C1.29725 2.08422 1.35926 1.93451 1.46964 1.82413C1.58002 1.71376 1.72972 1.65175 1.88582 1.65175ZM1.29725 23.4288V19.0645L9.1208 11.241C9.17546 11.1863 9.24037 11.1429 9.31182 11.1132C9.38327 11.0836 9.45986 11.0684 9.53721 11.0684C9.61455 11.0684 9.69114 11.0836 9.76259 11.1132C9.83405 11.1429 9.89896 11.1863 9.95362 11.241L22.73 24.0173H1.88582C1.72972 24.0173 1.58002 23.9553 1.46964 23.8449C1.35926 23.7346 1.29725 23.5849 1.29725 23.4288ZM27.7828 24.0173H24.3986L18.5129 18.1317L21.8721 14.7724C21.9268 14.7177 21.9917 14.6743 22.0632 14.6446C22.1346 14.615 22.2112 14.5998 22.2885 14.5998C22.3659 14.5998 22.4425 14.615 22.5139 14.6446C22.5854 14.6743 22.6503 14.7177 22.7049 14.7724L28.3714 20.4433V23.4288C28.3714 23.5849 28.3094 23.7346 28.199 23.8449C28.0886 23.9553 27.9389 24.0173 27.7828 24.0173ZM17.7772 8.71456C17.7772 8.48175 17.8462 8.25416 17.9755 8.06058C18.1049 7.867 18.2887 7.71613 18.5038 7.62703C18.7189 7.53794 18.9556 7.51463 19.1839 7.56005C19.4123 7.60547 19.622 7.71758 19.7867 7.8822C19.9513 8.04683 20.0634 8.25657 20.1088 8.48492C20.1542 8.71326 20.1309 8.94994 20.0418 9.16503C19.9527 9.38013 19.8019 9.56397 19.6083 9.69332C19.4147 9.82266 19.1871 9.8917 18.9543 9.8917C18.6421 9.8917 18.3427 9.76768 18.1219 9.54692C17.9012 9.32617 17.7772 9.02676 17.7772 8.71456Z" fill="#FDFDFD"/>
</svg>
