<svg width="41" height="42" viewBox="0 0 41 42" fill="none" xmlns="http://www.w3.org/2000/svg">
<path d="M41 21C41 26.5695 38.8402 31.911 34.9957 35.8492C31.1512 39.7875 25.9369 42 20.5 42C15.0631 42 9.84881 39.7875 6.00431 35.8492C2.15982 31.911 0 26.5695 0 21C0 15.4305 2.15982 10.089 6.00431 6.15076C9.84881 2.21249 15.0631 0 20.5 0C25.9369 0 31.1512 2.21249 34.9957 6.15076C38.8402 10.089 41 15.4305 41 21ZM21.2354 15.5033C19.2418 16.3538 15.2546 18.1125 9.27881 20.7795C8.31019 21.1733 7.80025 21.5618 7.75413 21.9397C7.67725 22.5776 8.45881 22.8296 9.52225 23.1735L9.97069 23.3179C11.0162 23.667 12.4256 24.0739 13.1559 24.0896C13.8221 24.1054 14.5627 23.8271 15.3801 23.2496C20.9638 19.3883 23.8466 17.4379 24.026 17.3959C24.1541 17.3644 24.3335 17.3276 24.4514 17.4379C24.5718 17.5455 24.559 17.7529 24.5462 17.808C24.4693 18.1466 21.402 21.0656 19.8158 22.5776C19.3212 23.0501 18.9702 23.3835 18.8984 23.4596C18.7404 23.625 18.5798 23.7878 18.4167 23.9479C17.4429 24.9086 16.7152 25.6279 18.4551 26.8039C19.2931 27.3709 19.9644 27.8355 20.6332 28.3027C21.361 28.812 22.0887 29.3186 23.0317 29.9539C23.2701 30.1114 23.5007 30.282 23.7236 30.4447C24.5718 31.0642 25.338 31.6208 26.2784 31.5315C26.8268 31.479 27.3931 30.954 27.6801 29.379C28.3592 25.6594 29.6943 17.6033 30.0018 14.2826C30.0205 14.0066 30.0093 13.7293 29.9684 13.4557C29.9443 13.235 29.84 13.0317 29.6763 12.8861C29.4431 12.7212 29.1652 12.6358 28.8819 12.642C28.1132 12.6551 26.9267 13.0778 21.2354 15.5033Z" fill="#FDFDFD"/>
</svg>
