<svg width="41" height="41" viewBox="0 0 41 41" fill="none" xmlns="http://www.w3.org/2000/svg">
<path d="M20.5 0C31.8222 0 41 9.17784 41 20.5C41 31.8221 31.8222 41 20.5 41C16.8772 41.0058 13.3182 40.0471 10.1885 38.2222L0.00822883 41L2.77983 30.8156C0.953469 27.685 -0.00602367 24.1244 2.84545e-05 20.5C2.84545e-05 9.17784 9.17787 0 20.5 0ZM13.5136 10.865L13.1036 10.8814C12.8382 10.8976 12.5788 10.9673 12.341 11.0864C12.1186 11.2123 11.9156 11.3698 11.7383 11.5538C11.4923 11.7854 11.3529 11.9863 11.2033 12.1811C10.445 13.1669 10.0368 14.3773 10.043 15.621C10.0471 16.6255 10.3095 17.6033 10.7195 18.5176C11.5579 20.3667 12.9376 22.3245 14.758 24.1387C15.1967 24.5754 15.6272 25.0141 16.0905 25.422C18.3524 27.4135 21.0479 28.8497 23.9625 29.6163L25.1269 29.7947C25.5061 29.8152 25.8854 29.7865 26.2667 29.768C26.8637 29.7372 27.4467 29.5755 27.9743 29.2945C28.2428 29.1562 28.5048 29.0057 28.7595 28.8435C28.7595 28.8435 28.8476 28.7861 29.0157 28.659C29.2925 28.454 29.4626 28.3084 29.6922 28.0686C29.8624 27.8923 30.01 27.6852 30.1227 27.4495C30.2826 27.1153 30.4425 26.4778 30.5081 25.9468C30.5573 25.5409 30.543 25.3195 30.5368 25.1822C30.5286 24.9628 30.3462 24.7353 30.1473 24.6389L28.9542 24.1039C28.9542 24.1039 27.1707 23.3269 26.0801 22.8308C25.966 22.781 25.8437 22.7525 25.7193 22.7468C25.5791 22.7324 25.4373 22.7482 25.3037 22.7931C25.17 22.838 25.0475 22.911 24.9444 23.0071C24.9342 23.003 24.7968 23.1199 23.3147 24.9157C23.2296 25.03 23.1124 25.1164 22.9781 25.1638C22.8437 25.2113 22.6983 25.2177 22.5603 25.1822C22.4267 25.1464 22.2959 25.1012 22.1687 25.0469C21.9145 24.9403 21.8264 24.8993 21.6521 24.8255C20.4756 24.312 19.3862 23.6183 18.4234 22.7693C18.1651 22.5438 17.9252 22.2978 17.6792 22.06C16.8727 21.2877 16.1698 20.4139 15.5882 19.4606L15.4673 19.2659C15.3804 19.135 15.3102 18.9939 15.2582 18.8456C15.1803 18.5443 15.3832 18.3024 15.3832 18.3024C15.3832 18.3024 15.8814 17.7571 16.113 17.4619C16.3385 17.1749 16.5292 16.8961 16.6522 16.6972C16.8941 16.3077 16.9699 15.908 16.8428 15.5984C16.2688 14.1962 15.6743 12.8002 15.0634 11.4144C14.9425 11.1397 14.5837 10.9429 14.2578 10.9039C14.1471 10.8916 14.0364 10.8793 13.9257 10.8711C13.6504 10.8575 13.3745 10.8602 13.0995 10.8793L13.5116 10.8629" fill="#FDFDFD"/>
</svg>
